<svg xmlns="http://www.w3.org/2000/svg" version="1.1" viewBox="-5.0 -10.0 110.0 135.0">
 <path d="m90.301 88.281v-60.391c0.007813-1.0195-0.54297-1.957-1.4414-2.4414l-37.059-20.508c-1.1172-0.63281-2.4844-0.63281-3.6016 0l-37.059 20.508c-0.89844 0.48438-1.4492 1.4219-1.4414 2.4414v60.391h7.3008v-48.211c-0.74609 0.011719-1.4688-0.27734-2-0.80469-0.53125-0.52344-0.82812-1.2383-0.82812-1.9844v-3.8828c0-1.5391 1.2461-2.7891 2.7891-2.7891h66.109c0.73828 0 1.4492 0.29297 1.9727 0.81641 0.52344 0.52344 0.81641 1.2344 0.81641 1.9727v3.8828c0 0.75-0.30078 1.4727-0.83984 1.9961-0.53906 0.52734-1.2656 0.8125-2.0195 0.79297v48.211zm-83 7.2617h85.5v-0.003907c1.0234-0.003906 1.8555-0.83594 1.8594-1.8594v-1.6797c0-1.0273-0.83203-1.8594-1.8594-1.8594h-85.551c-1.0273 0-1.8594 0.83203-1.8594 1.8594v1.6797c0.003906 1.0234 0.83594 1.8555 1.8594 1.8594zm42.699-82.453c3.0977-0.003906 5.7617 2.1797 6.3711 5.2148 0.60938 3.0352-1.0117 6.0781-3.8711 7.2656-2.8555 1.1914-6.1562 0.19531-7.8828-2.375-1.7227-2.5703-1.3906-6 0.79297-8.1953 1.2148-1.2188 2.8672-1.9062 4.5898-1.9102zm3.2812 3.2188c1.5898 1.543 1.8672 3.9961 0.66016 5.8555-1.2031 1.8594-3.5547 2.6055-5.6133 1.7852-2.0586-0.82031-3.2461-2.9844-2.8398-5.1602 0.40625-2.1797 2.2969-3.7656 4.5117-3.7891 1.2305 0 2.4102 0.48828 3.2812 1.3594zm-34.449 72-0.003906-48.238h62.344v48.211h-9.4922v-18.891c0-1.543-1.25-2.7891-2.7891-2.7891h-7.582v-18c-0.007813-1.5352-1.2539-2.7773-2.7891-2.7812h-17c-1.5352 0.003907-2.7773 1.2461-2.7891 2.7812v18h-7.6211c-1.5391 0-2.7891 1.2461-2.7891 2.7891v18.891zm21.719-21.707v-18c0-0.51562 0.41406-0.92969 0.92969-0.92969h4.8203v4.3281c0 0.96484 0.78125 1.75 1.75 1.75h3.9492c0.94531-0.03125 1.6953-0.80469 1.6992-1.75v-4.3008h4.8203c0.51562 0 0.92969 0.41797 0.92969 0.92969v18h-18.898zm11.289-18.902v4.1992h-3.6797v-4.1992zm-21.66 40.582v-18.891c0-0.51562 0.41797-0.92969 0.92969-0.92969h4.8086v4.3008h0.003906c0 0.96484 0.78125 1.75 1.75 1.75h3.9102-0.003906c0.96484-0.007813 1.7461-0.78906 1.75-1.75v-4.3008h5.7383l0.003906 19.82zm11.289-19.82v4.1992h-3.6875v-4.1992zm9.4609 19.82v-19.82h5.7383v4.3008h0.003906c0 0.96484 0.78125 1.75 1.75 1.75h3.9102-0.003906c0.96484-0.007813 1.7461-0.78906 1.75-1.75v-4.3008h4.8125c0.51172 0 0.92969 0.41406 0.92969 0.92969v18.891zm11.289-19.82v4.1992h-3.6875v-4.1992zm20.852-36c0.51172 0 0.92969 0.41406 0.92969 0.92969v3.8789c0 0.51562-0.41797 0.92969-0.92969 0.92969h-66.141c-0.51172 0-0.92969-0.41406-0.92969-0.92969v-3.8711c0-0.51172 0.41797-0.92969 0.92969-0.92969z" fill-rule="evenodd"/>
</svg>
