<svg width="27" height="26" viewBox="0 0 27 26" fill="none" xmlns="http://www.w3.org/2000/svg">
<g clip-path="url(#clip0_126_331)">
<path d="M0.5 1.08325H5.661L6.25142 3.24992H25.8359L21.8644 15.1666H8.92833L8.38667 17.3333H24.3333V19.4999H5.61333L6.96317 14.0952L4.00567 3.24992H0.5V1.08325ZM4.83333 22.7499C4.83333 22.1753 5.06161 21.6242 5.46794 21.2179C5.87426 20.8115 6.42536 20.5833 7 20.5833C7.57464 20.5833 8.12574 20.8115 8.53207 21.2179C8.93839 21.6242 9.16667 22.1753 9.16667 22.7499C9.16667 23.3246 8.93839 23.8757 8.53207 24.282C8.12574 24.6883 7.57464 24.9166 7 24.9166C6.42536 24.9166 5.87426 24.6883 5.46794 24.282C5.06161 23.8757 4.83333 23.3246 4.83333 22.7499ZM20 22.7499C20 22.1753 20.2283 21.6242 20.6346 21.2179C21.0409 20.8115 21.592 20.5833 22.1667 20.5833C22.7413 20.5833 23.2924 20.8115 23.6987 21.2179C24.1051 21.6242 24.3333 22.1753 24.3333 22.7499C24.3333 23.3246 24.1051 23.8757 23.6987 24.282C23.2924 24.6883 22.7413 24.9166 22.1667 24.9166C21.592 24.9166 21.0409 24.6883 20.6346 24.282C20.2283 23.8757 20 23.3246 20 22.7499Z" fill="#F6FAFF"/>
</g>
<defs>
<clipPath id="clip0_126_331">
<rect width="26" height="26" fill="white" transform="translate(0.5)"/>
</clipPath>
</defs>
</svg>
