<svg xmlns:inkscape="http://www.inkscape.org/namespaces/inkscape" xmlns:sodipodi="http://sodipodi.sourceforge.net/DTD/sodipodi-0.dtd" xmlns="http://www.w3.org/2000/svg" xmlns:svg="http://www.w3.org/2000/svg" xmlns:rdf="http://www.w3.org/1999/02/22-rdf-syntax-ns#" xmlns:cc="http://creativecommons.org/ns#" xmlns:dc="http://purl.org/dc/elements/1.1/" viewBox="-0.44979165 -0.89958339 9.895416299999999 12.144375765" version="1.1" x="0px" y="0px"><g><path style="color:#000000;" d="M 0.84951117,2.5856667e-4 C 0.38364017,2.5856667e-4 1.6666666e-7,0.38389857 1.6666666e-7,0.84977037 V 3.169909 C 1.6666666e-7,3.6357807 0.38364017,4.0173538 0.84951117,4.0173538 H 3.1696502 c 0.465873,0 0.847961,-0.3815731 0.847961,-0.8474448 V 0.84977037 c 0,-0.4658718 -0.382088,-0.84951180333 -0.847961,-0.84951180333 z m 4.97667203,0 c -0.465872,0 -0.847962,0.38364000333 -0.847962,0.84951180333 V 3.169909 c 0,0.4658717 0.38209,0.8474448 0.847962,0.8474448 h 2.320138 c 0.465872,0 0.849512,-0.3815731 0.849512,-0.8474448 V 0.84977037 c 0,-0.4658718 -0.38364,-0.84951180333 -0.849512,-0.84951180333 z M 0.84951117,4.9764128 c -0.465871,0 -0.84951100333334,0.383639 -0.84951100333334,0.849512 v 2.320139 c 0,0.465871 0.38364000333334,0.84951 0.84951100333334,0.849511 H 3.1696502 c 0.465873,0 0.847961,-0.38364 0.847961,-0.849511 v -2.320139 c 0,-0.465873 -0.382088,-0.849512 -0.847961,-0.849512 z m 6.13674103,0 c -1.106434,0 -2.008031,0.903146 -2.008031,2.009582 0,1.106435 0.901597,2.00958 2.008031,2.00958 1.106434,0 2.009581,-0.903145 2.009581,-2.00958 0,-1.106436 -0.903147,-2.009582 -2.009581,-2.009582 z" fill="#000000" fill-opacity="1" stroke-width="1" stroke-linecap="round" stroke-linejoin="round"/></g></svg>
