<svg width="46" height="46" viewBox="0 0 46 46" fill="black" xmlns="http://www.w3.org/2000/svg">
<path d="M23 7.66663C25.0333 7.66663 26.9834 8.47436 28.4211 9.91214C29.8589 11.3499 30.6667 13.3 30.6667 15.3333C30.6667 17.3666 29.8589 19.3167 28.4211 20.7544C26.9834 22.1922 25.0333 23 23 23C20.9667 23 19.0166 22.1922 17.5788 20.7544C16.1411 19.3167 15.3333 17.3666 15.3333 15.3333C15.3333 13.3 16.1411 11.3499 17.5788 9.91214C19.0166 8.47436 20.9667 7.66663 23 7.66663ZM23 26.8333C31.4717 26.8333 38.3333 30.2641 38.3333 34.5V38.3333H7.66666V34.5C7.66666 30.2641 14.5283 26.8333 23 26.8333Z" fill="black"/>
</svg>
