<svg width="46" height="46" viewBox="0 0 46 46" fill="none" xmlns="http://www.w3.org/2000/svg">
<mask id="mask0_52_358" style="mask-type:luminance" maskUnits="userSpaceOnUse" x="7" y="2" width="32" height="42">
<path d="M23 42.1667C23 42.1667 37.375 30.6667 37.375 18.2084C37.375 10.2695 30.9388 3.83337 23 3.83337C15.0612 3.83337 8.625 10.2695 8.625 18.2084C8.625 30.6667 23 42.1667 23 42.1667Z" fill="white" stroke="white" stroke-width="2" stroke-linejoin="round"/>
<path d="M23 23.9584C23.7551 23.9584 24.5028 23.8096 25.2004 23.5207C25.8981 23.2317 26.5319 22.8082 27.0659 22.2742C27.5998 21.7403 28.0233 21.1064 28.3123 20.4088C28.6013 19.7112 28.75 18.9635 28.75 18.2084C28.75 17.4533 28.6013 16.7056 28.3123 16.0079C28.0233 15.3103 27.5998 14.6764 27.0659 14.1425C26.5319 13.6086 25.8981 13.185 25.2004 12.8961C24.5028 12.6071 23.7551 12.4584 23 12.4584C21.475 12.4584 20.0125 13.0642 18.9341 14.1425C17.8558 15.2208 17.25 16.6834 17.25 18.2084C17.25 19.7334 17.8558 21.1959 18.9341 22.2742C20.0125 23.3526 21.475 23.9584 23 23.9584Z" fill="black" stroke="black" stroke-width="2" stroke-linejoin="round"/>
</mask>
<g mask="url(#mask0_52_358)">
<path d="M0 0H46V46H0V0Z" fill="black"/>
</g>
</svg>
