<svg width="46" height="46" viewBox="0 0 46 46" fill="none" xmlns="http://www.w3.org/2000/svg">
<path fill-rule="evenodd" clip-rule="evenodd" d="M3.83332 3.83337C3.32499 3.83337 2.83748 4.03531 2.47804 4.39475C2.11859 4.7542 1.91666 5.24171 1.91666 5.75004V32.5834C1.91666 35.1785 3.63591 37.3712 5.99724 38.088C6.34876 39.2476 7.05762 40.2665 8.02263 40.9993C8.98764 41.7321 10.1595 42.1413 11.3709 42.1685C12.5823 42.1957 13.7713 41.8395 14.7682 41.1508C15.7651 40.4621 16.519 39.476 16.9222 38.3334H29.0777C29.481 39.476 30.2348 40.4621 31.2318 41.1508C32.2287 41.8395 33.4177 42.1957 34.6291 42.1685C35.8405 42.1413 37.0123 41.7321 37.9773 40.9993C38.9424 40.2665 39.6512 39.2476 40.0027 38.088C41.1835 37.7298 42.2177 37.0012 42.9526 36.0099C43.6874 35.0187 44.0838 33.8173 44.0833 32.5834V24.9167C44.0833 23.6582 43.8354 22.412 43.3538 21.2493C42.8722 20.0866 42.1663 19.0302 41.2764 18.1403C40.3865 17.2504 39.3301 16.5445 38.1674 16.0629C37.0047 15.5813 35.7585 15.3334 34.5 15.3334H26.8333V5.75004C26.8333 5.24171 26.6314 4.7542 26.2719 4.39475C25.9125 4.03531 25.425 3.83337 24.9167 3.83337H3.83332ZM29.0777 34.5H26.8333V19.1667H34.5C36.025 19.1667 37.4875 19.7725 38.5659 20.8508C39.6442 21.9292 40.25 23.3917 40.25 24.9167V32.5834C40.2499 33.0917 40.0479 33.5791 39.6884 33.9385C39.1984 32.912 38.415 32.0539 37.4372 31.4727C36.4594 30.8915 35.3313 30.6134 34.1954 30.6736C33.0596 30.7337 31.9671 31.1293 31.0561 31.8104C30.1451 32.4916 29.4567 33.4276 29.0777 34.5ZM10.1449 35.0616C10.3217 34.8786 10.5332 34.7325 10.767 34.6321C11.0009 34.5316 11.2524 34.4788 11.5069 34.4766C11.7614 34.4743 12.0138 34.5228 12.2493 34.6192C12.4849 34.7156 12.6989 34.8579 12.8788 35.0379C13.0588 35.2178 13.2011 35.4318 13.2975 35.6674C13.3939 35.9029 13.4423 36.1553 13.4401 36.4098C13.4379 36.6643 13.3851 36.9158 13.2846 37.1497C13.1842 37.3835 13.0381 37.595 12.8551 37.7718C12.4936 38.1209 12.0094 38.3141 11.5069 38.3098C11.0043 38.3054 10.5236 38.1038 10.1683 37.7484C9.81289 37.3931 9.61131 36.9124 9.60695 36.4098C9.60258 35.9073 9.79577 35.4231 10.1449 35.0616ZM32.5833 36.4167C32.5833 35.9084 32.7853 35.4209 33.1447 35.0614C33.5041 34.702 33.9917 34.5 34.5 34.5C35.0083 34.5 35.4958 34.702 35.8553 35.0614C36.2147 35.4209 36.4167 35.9084 36.4167 36.4167C36.4167 36.925 36.2147 37.4126 35.8553 37.772C35.4958 38.1314 35.0083 38.3334 34.5 38.3334C33.9917 38.3334 33.5041 38.1314 33.1447 37.772C32.7853 37.4126 32.5833 36.925 32.5833 36.4167Z" fill="black"/>
</svg>
