<svg xmlns="http://www.w3.org/2000/svg" version="1.1" width="96" height="96" viewBox="-5.0 -20.0 110.0 135.0">
 <path d="m50 34.496c6.1055 0 11.055-4.8047 11.055-10.734 0-5.9297-4.9492-10.734-11.055-10.734s-11.055 4.8047-11.055 10.734c0.003907 5.9258 4.9492 10.734 11.055 10.734zm-1.3242 44.742v-13.461c0-0.0625-0.03125-0.11719-0.089843-0.14844-0.054688-0.03125-0.12109-0.03125-0.17578 0l-12.742 7.1445c-0.42969 0.24219-0.94141 0.22266-1.3359-0.007813l-12.73-7.1406c-0.054687-0.03125-0.12109-0.03125-0.17578 0-0.054687 0.03125-0.089843 0.085938-0.089843 0.14844v13.461c0 0.0625 0.03125 0.11719 0.089843 0.14844l13.496 7.5664c0.054687 0.03125 0.12109 0.03125 0.17578 0l13.496-7.5664c0.050781-0.027343 0.082031-0.082031 0.082031-0.14453zm-13.582-9.1016c-0.054688 0.03125-0.12109 0.03125-0.17578 0l-12.004-6.7305c-0.054687-0.03125-0.089843-0.085938-0.089843-0.14844s0.03125-0.11719 0.089843-0.14844l12.004-6.7305c0.054687-0.03125 0.12109-0.03125 0.17578 0l12.004 6.7305c0.054688 0.03125 0.089844 0.085937 0.089844 0.14844s-0.03125 0.11719-0.089844 0.14844zm19.84-5.5938 9.9727 5.5938c0.054688 0.03125 0.12109 0.03125 0.17578 0l12.004-6.7305c0.054687-0.03125 0.089843-0.085938 0.089843-0.14844s-0.03125-0.11719-0.089843-0.14844l-12.004-6.7305c-0.054687-0.03125-0.12109-0.03125-0.17578 0l-12.004 6.7305c-0.054688 0.03125-0.089844 0.085937-0.089844 0.14844s0.03125 0.11719 0.089844 0.14844zm-3.6094 11.328v-10.094c0-0.0625 0.03125-0.11719 0.089843-0.14844 0.054688-0.03125 0.12109-0.03125 0.17578 0l12.746 7.1484c0.42969 0.24219 0.94141 0.22266 1.3359-0.007813l12.73-7.1406c0.054687-0.03125 0.12109-0.03125 0.17578 0s0.089844 0.085938 0.089844 0.14844v13.461c0 0.0625-0.03125 0.11719-0.089844 0.14844l-13.496 7.5664c-0.054687 0.03125-0.12109 0.03125-0.17578 0l-13.496-7.5664c-0.054687-0.03125-0.089844-0.085938-0.089844-0.14844zm-1.3242-39.512c-12.105 0-22.07 9.3477-22.625 20.977-0.003906 0.0625 0.027344 0.12109 0.085938 0.15234 0.054687 0.035157 0.12109 0.035157 0.17969 0.003907l7.2773-4.082c0.054687-0.03125 0.12109-0.03125 0.17578 0l14.82 8.3086c0.054688 0.03125 0.12109 0.03125 0.17578 0l14.82-8.3086c0.054688-0.03125 0.12109-0.03125 0.17578 0l7.2773 4.082c0.058594 0.03125 0.125 0.03125 0.17969-0.003907 0.054687-0.035156 0.085937-0.089843 0.085937-0.15234-0.55859-11.629-10.523-20.977-22.629-20.977z" fill-rule="evenodd"/>
</svg>
