<svg width="46" height="46" viewBox="0 0 46 46" fill="none" xmlns="http://www.w3.org/2000/svg">
<path d="M7.66666 36.4167V19.1667C7.66666 18.5598 7.80274 17.9848 8.07491 17.4417C8.34707 16.8987 8.7221 16.4514 9.19999 16.1L20.7 7.47504C21.3708 6.96393 22.1375 6.70837 23 6.70837C23.8625 6.70837 24.6292 6.96393 25.3 7.47504L36.8 16.1C37.2792 16.4514 37.6548 16.8987 37.927 17.4417C38.1992 17.9848 38.3346 18.5598 38.3333 19.1667V36.4167C38.3333 37.4709 37.9577 38.3736 37.2063 39.125C36.455 39.8763 35.5529 40.2513 34.5 40.25H28.75C28.2069 40.25 27.752 40.066 27.3853 39.698C27.0186 39.33 26.8346 38.8751 26.8333 38.3334V28.75C26.8333 28.207 26.6493 27.7521 26.2813 27.3854C25.9133 27.0187 25.4584 26.8347 24.9167 26.8334H21.0833C20.5403 26.8334 20.0854 27.0174 19.7187 27.3854C19.3519 27.7534 19.1679 28.2083 19.1667 28.75V38.3334C19.1667 38.8764 18.9827 39.332 18.6147 39.7C18.2467 40.068 17.7918 40.2513 17.25 40.25H11.5C10.4458 40.25 9.54371 39.875 8.79366 39.125C8.0436 38.3749 7.66793 37.4721 7.66666 36.4167Z" fill="black"/>
</svg>
