<svg width="46" height="46" viewBox="0 0 46 46" fill="none" xmlns="http://www.w3.org/2000/svg">
<path fill-rule="evenodd" clip-rule="evenodd" d="M10.7065 8.78979C9.58334 9.91296 9.58334 11.7185 9.58334 15.3333V32.5833C9.58334 36.1981 9.58334 38.0036 10.7065 39.1268C11.8297 40.25 13.6352 40.25 17.25 40.25H28.75C32.3648 40.25 34.1703 40.25 35.2935 39.1268C36.4167 38.0036 36.4167 36.1981 36.4167 32.5833V15.3333C36.4167 11.7185 36.4167 9.91296 35.2935 8.78979C34.1703 7.66663 32.3648 7.66663 28.75 7.66663H17.25C13.6352 7.66663 11.8297 7.66663 10.7065 8.78979ZM17.25 15.3333C16.7417 15.3333 16.2542 15.5352 15.8947 15.8947C15.5353 16.2541 15.3333 16.7416 15.3333 17.25C15.3333 17.7583 15.5353 18.2458 15.8947 18.6052C16.2542 18.9647 16.7417 19.1666 17.25 19.1666H28.75C29.2583 19.1666 29.7459 18.9647 30.1053 18.6052C30.4647 18.2458 30.6667 17.7583 30.6667 17.25C30.6667 16.7416 30.4647 16.2541 30.1053 15.8947C29.7459 15.5352 29.2583 15.3333 28.75 15.3333H17.25ZM17.25 23C16.7417 23 16.2542 23.2019 15.8947 23.5613C15.5353 23.9208 15.3333 24.4083 15.3333 24.9166C15.3333 25.425 15.5353 25.9125 15.8947 26.2719C16.2542 26.6314 16.7417 26.8333 17.25 26.8333H28.75C29.2583 26.8333 29.7459 26.6314 30.1053 26.2719C30.4647 25.9125 30.6667 25.425 30.6667 24.9166C30.6667 24.4083 30.4647 23.9208 30.1053 23.5613C29.7459 23.2019 29.2583 23 28.75 23H17.25ZM17.25 30.6666C16.7417 30.6666 16.2542 30.8686 15.8947 31.228C15.5353 31.5874 15.3333 32.075 15.3333 32.5833C15.3333 33.0916 15.5353 33.5791 15.8947 33.9386C16.2542 34.298 16.7417 34.5 17.25 34.5H24.9167C25.425 34.5 25.9125 34.298 26.272 33.9386C26.6314 33.5791 26.8333 33.0916 26.8333 32.5833C26.8333 32.075 26.6314 31.5874 26.272 31.228C25.9125 30.8686 25.425 30.6666 24.9167 30.6666H17.25Z" fill="black"/>
</svg>
