<svg width="46" height="46" viewBox="0 0 46 46" fill="none" xmlns="http://www.w3.org/2000/svg">
<path d="M25.2243 4.63071C23.7964 4.05962 22.2036 4.05962 20.7757 4.63071L15.7061 6.65855L33.6634 13.8508L40.7014 11.0353C40.3723 10.7625 40.0027 10.5427 39.606 10.3836L25.2243 4.63071ZM30.4396 15.1408L12.4813 7.94846L6.39401 10.3826C5.98959 10.5455 5.62159 10.766 5.29863 11.0353L23 18.1164L30.4396 15.1408ZM3.83334 14.1642C3.83334 13.7943 3.88318 13.432 3.97805 13.087L21.8021 20.217V41.6751C21.4512 41.605 21.1076 41.5024 20.7757 41.3684L6.39401 35.6146C5.63846 35.3125 4.99072 34.7909 4.53432 34.1173C4.07791 33.4436 3.83376 32.6486 3.83334 31.8349V14.1642ZM25.2243 41.3675C24.8895 41.5016 24.5474 41.6042 24.1979 41.6751V20.217L42.022 13.087C42.1168 13.433 42.1667 13.7953 42.1667 14.1652V31.8349C42.1664 32.6488 41.9224 33.444 41.466 34.1178C41.0096 34.7917 40.3617 35.3134 39.606 35.6155L25.2243 41.3675Z" fill="black"/>
</svg>
