<svg xmlns="http://www.w3.org/2000/svg" version="1.1" viewBox="-5.0 -10.0 110.0 135.0">
 <path d="m12.5 90.625h6.4688c-0.64062-0.875-1-1.9688-1-3.125v-56.25c0-1.1562 0.35938-2.25 1-3.125h-6.4688c-1.7188 0-3.125 1.4062-3.125 3.125v56.25c0 1.7188 1.4062 3.125 3.125 3.125z"/>
 <path d="m23.438 90.625h48.438c1.7188 0 3.125-1.4062 3.125-3.125v-0.29688c-1.4062-0.03125-2.75-0.59375-3.75-1.5938-0.51562-0.51562-0.90625-1.1094-1.1719-1.7344-1.9062 0.57812-3.9219 0.89062-6.0156 0.89062-11.422 0-20.703-9.2812-20.703-20.703s9.2812-20.703 20.703-20.703c4.0156 0 7.7656 1.1562 10.938 3.125v-15.234c0-1.7188-1.4062-3.125-3.125-3.125h-4.6875v-3.125c0-9.3047-7.4375-16.887-16.676-17.16-2.8008-1.9766-6.207-3.1523-9.8867-3.1523-9.4766 0-17.188 7.7109-17.188 17.188v6.25c-1.7188 0-3.125 1.4062-3.125 3.125v56.25c0 1.7188 1.4062 3.125 3.125 3.125zm12.5-62.5v-3.125c0-7.5781 6.0312-13.758 13.543-14.035 3.1719 2.582 5.207 6.5117 5.207 10.91v6.25zm28.125-3.125v3.125h-6.25v-6.25c0-3.8281-1.2734-7.3555-3.3984-10.219 5.5977 1.8555 9.6484 7.1328 9.6484 13.344zm-37.5-3.125c0-7.7539 6.3086-14.062 14.062-14.062 1.5508 0 3.043 0.26172 4.4414 0.73047-7.0781 2.125-12.254 8.6953-12.254 16.457v3.125h-6.25z"/>
 <path d="m78.125 64.062c0 7.7656-6.2969 14.062-14.062 14.062s-14.062-6.2969-14.062-14.062 6.2969-14.062 14.062-14.062 14.062 6.2969 14.062 14.062"/>
 <path d="m45.703 64.062c0 10.125 8.2383 18.359 18.359 18.359 2.9531 0 5.7344-0.71484 8.207-1.9609-0.51562 1.1484-0.3125 2.543 0.63281 3.4883 1.2188 1.2188 3.1992 1.2188 4.418 0v-0.003907l8.832 8.832c1.8281 1.8438 4.7969 1.8438 6.625 0 1.8438-1.8281 1.8438-4.7969 0-6.625l-8.832-8.832 0.003907-0.003906c1.2188-1.2188 1.2188-3.1992 0-4.418-0.94531-0.94531-2.3398-1.1484-3.4883-0.63281 1.2422-2.4727 1.9609-5.2539 1.9609-8.207 0-10.125-8.2383-18.359-18.359-18.359s-18.359 8.2344-18.359 18.359zm34.375 0c0 2.7344-0.69141 5.3086-1.9023 7.5586-0.32812 0.61328-0.70703 1.1953-1.1133 1.7578-0.10156 0.14062-0.20703 0.27734-0.3125 0.41797-0.41797 0.54297-0.85938 1.0703-1.3438 1.5547l-0.054688 0.054688c-0.48437 0.48438-1.0117 0.92578-1.5547 1.3438-0.13672 0.10547-0.27344 0.21094-0.41406 0.30859-0.5625 0.40625-1.1445 0.78516-1.7578 1.1133-2.2539 1.2109-4.8281 1.9023-7.5625 1.9023-8.832 0-16.016-7.1836-16.016-16.016 0-8.832 7.1836-16.016 16.016-16.016s16.016 7.1836 16.016 16.016z"/>
</svg>
