<svg width="30" height="30" viewBox="0 0 30 30" fill="none" xmlns="http://www.w3.org/2000/svg">
<path d="M15 30C6.7155 30 0 23.2845 0 15C0 6.7155 6.7155 0 15 0C23.2845 0 30 6.7155 30 15C30 23.2845 23.2845 30 15 30ZM17.001 15H12.7485V10.5H16.9995C17.5962 10.5 18.1685 10.7371 18.5905 11.159C19.0124 11.581 19.2495 12.1533 19.2495 12.75C19.2495 13.3467 19.0124 13.919 18.5905 14.341C18.1685 14.7629 17.5977 15 17.001 15ZM16.9995 7.5H9.7485V22.5H12.7485V18H16.9995C18.3919 18 19.7272 17.4469 20.7118 16.4623C21.6964 15.4777 22.2495 14.1424 22.2495 12.75C22.2495 11.3576 21.6964 10.0223 20.7118 9.03769C19.7272 8.05312 18.3919 7.5 16.9995 7.5Z" fill="black"/>
</svg>
